<svg width="115" height="115" viewBox="0 0 115 115" fill="none" xmlns="http://www.w3.org/2000/svg">
<path d="M7.1875 100.625C7.1875 104.601 10.3994 107.812 14.375 107.812H50.3125V71.875H7.1875V100.625ZM64.6875 107.812H100.625C104.601 107.812 107.812 104.601 107.812 100.625V71.875H64.6875V107.812ZM107.812 35.9375H98.3564C99.749 33.2197 100.625 30.21 100.625 26.9531C100.625 16.0596 91.7529 7.1875 80.8594 7.1875C71.5156 7.1875 65.4736 11.9717 57.7246 22.5283C49.9756 11.9717 43.9336 7.1875 34.5898 7.1875C23.6963 7.1875 14.8242 16.0596 14.8242 26.9531C14.8242 30.21 15.6777 33.2197 17.0928 35.9375H7.1875C3.21191 35.9375 0 39.1494 0 43.125V61.0938C0 63.0703 1.61719 64.6875 3.59375 64.6875H111.406C113.383 64.6875 115 63.0703 115 61.0938V43.125C115 39.1494 111.788 35.9375 107.812 35.9375ZM34.5674 35.9375C29.6035 35.9375 25.583 31.917 25.583 26.9531C25.583 21.9893 29.6035 17.9688 34.5674 17.9688C39.0371 17.9688 42.3389 18.71 53.9062 35.9375H34.5674ZM80.8594 35.9375H61.5205C73.0654 18.7549 76.2773 17.9688 80.8594 17.9688C85.8232 17.9688 89.8438 21.9893 89.8438 26.9531C89.8438 31.917 85.8232 35.9375 80.8594 35.9375Z" fill="#19A172"/>
</svg>
