<svg width="55" height="74" viewBox="0 0 55 74" fill="none" xmlns="http://www.w3.org/2000/svg">
<g clip-path="url(#clip0)">
<path d="M24.6738 72.507C3.86289 42.0631 0 38.9386 0 27.75C0 12.4241 12.3121 0 27.5 0C42.6879 0 55 12.4241 55 27.75C55 38.9386 51.1371 42.0631 30.3262 72.507C28.9605 74.4978 26.0394 74.4976 24.6738 72.507ZM27.5 39.3125C33.8283 39.3125 38.9583 34.1358 38.9583 27.75C38.9583 21.3642 33.8283 16.1875 27.5 16.1875C21.1717 16.1875 16.0417 21.3642 16.0417 27.75C16.0417 34.1358 21.1717 39.3125 27.5 39.3125Z" fill="#EB4646"/>
</g>
<defs>
<clipPath id="clip0">
<rect width="55" height="74" fill="white"/>
</clipPath>
</defs>
</svg>
