<svg width="156" height="156" viewBox="0 0 156 156" fill="none" xmlns="http://www.w3.org/2000/svg">
<circle cx="78" cy="78" r="78" fill="white"/>
<g clip-path="url(#clip0)">
<path d="M74.6738 113.507C53.8629 83.0631 50 79.9386 50 68.75C50 53.4241 62.3121 41 77.5 41C92.6879 41 105 53.4241 105 68.75C105 79.9386 101.137 83.0631 80.3262 113.507C78.9605 115.498 76.0394 115.498 74.6738 113.507ZM77.5 80.3125C83.8283 80.3125 88.9583 75.1358 88.9583 68.75C88.9583 62.3642 83.8283 57.1875 77.5 57.1875C71.1717 57.1875 66.0417 62.3642 66.0417 68.75C66.0417 75.1358 71.1717 80.3125 77.5 80.3125Z" fill="#EB4646"/>
</g>
<defs>
<clipPath id="clip0">
<rect width="55" height="74" fill="white" transform="translate(50 41)"/>
</clipPath>
</defs>
</svg>
