<svg width="112" height="115" viewBox="0 0 112 115" fill="none" xmlns="http://www.w3.org/2000/svg">
<g clip-path="url(#clip0)">
<path d="M55.7031 1.79688C24.9316 1.79688 0 26.7285 0 57.5C0 88.2715 24.9316 113.203 55.7031 113.203C86.4746 113.203 111.406 88.2715 111.406 57.5C111.406 26.7285 86.4746 1.79688 55.7031 1.79688ZM25.1562 50.1777C25.8975 40.7217 32.3887 34.1406 37.7344 34.1406C43.0801 34.1406 49.5713 40.7217 50.3125 50.1777C50.4697 52.1094 47.8867 52.8506 46.9658 51.1885L44.832 47.3701C43.1025 44.293 40.5195 42.5186 37.7568 42.5186C34.9941 42.5186 32.4111 44.293 30.6816 47.3701L28.5479 51.1885C27.582 52.8506 24.999 52.0869 25.1562 50.1777ZM81.4883 77.7598C75.0869 85.4414 65.6982 89.8438 55.7031 89.8438C45.708 89.8438 36.3193 85.4414 29.918 77.7598C26.8857 74.0986 32.3887 69.5166 35.4434 73.1553C40.4746 79.1973 47.8418 82.6338 55.7031 82.6338C63.5645 82.6338 70.9316 79.1748 75.9629 73.1553C79.0176 69.5166 84.5205 74.1211 81.4883 77.7598ZM82.8809 51.1885L80.7471 47.3701C79.0176 44.293 76.4346 42.5186 73.6719 42.5186C70.9092 42.5186 68.3262 44.293 66.5967 47.3701L64.4629 51.1885C63.542 52.8281 60.959 52.0869 61.1162 50.1777C61.8574 40.7217 68.3486 34.1406 73.6943 34.1406C79.04 34.1406 85.5312 40.7217 86.2725 50.1777C86.4072 52.1094 83.8018 52.8506 82.8809 51.1885Z" fill="#19A172"/>
</g>
<defs>
<clipPath id="clip0">
<rect width="111.406" height="115" fill="white"/>
</clipPath>
</defs>
</svg>
