<svg width="144" height="115" viewBox="0 0 144 115" fill="none" xmlns="http://www.w3.org/2000/svg">
<g clip-path="url(#clip0)">
<path d="M112.037 50.7485L64.3633 3.15778C62.3379 1.1359 59.5909 1.49517e-05 56.7266 0H10.8C4.83525 0 0 4.82686 0 10.7812V56.6281C1.49777e-05 59.4874 1.13788 62.2297 3.16328 64.2515L50.8367 111.842C55.0541 116.053 61.8923 116.053 66.1102 111.842L112.037 65.9954C116.254 61.7851 116.254 54.9588 112.037 50.7485ZM25.2 35.9375C19.2353 35.9375 14.4 31.1106 14.4 25.1562C14.4 19.2019 19.2353 14.375 25.2 14.375C31.1648 14.375 36 19.2019 36 25.1562C36 31.1106 31.1648 35.9375 25.2 35.9375ZM140.837 65.9954L94.9102 111.842C90.6926 116.053 83.8544 116.053 79.6367 111.842L79.5557 111.761L118.719 72.6661C122.544 68.8479 124.65 63.7715 124.65 58.3719C124.65 52.9723 122.544 47.8959 118.719 44.0778L74.5643 0H85.5266C88.3909 1.49517e-05 91.1379 1.1359 93.1633 3.15778L140.837 50.7485C145.054 54.9588 145.054 61.7851 140.837 65.9954Z" fill="#19A172"/>
</g>
<defs>
<clipPath id="clip0">
<rect width="144" height="115" fill="white"/>
</clipPath>
</defs>
</svg>
